HIERARCHY
ROOT hip
{
  OFFSET 0 0 0
  CHANNELS 6 Xposition Yposition Zposition Zrotation Yrotation Xrotation
  JOINT abdomen
  {
    OFFSET 0 20.6881 -0.73152
    CHANNELS 3 Zrotation Xrotation Yrotation
    JOINT chest
    {
      OFFSET 0 11.7043 -0.48768
      CHANNELS 3 Zrotation Xrotation Yrotation
      JOINT neck
      {
        OFFSET 0 22.1894 -2.19456
        CHANNELS 3 Zrotation Xrotation Yrotation
        JOINT head
        {
          OFFSET -0.24384 7.07133 1.2192
          CHANNELS 3 Zrotation Xrotation Yrotation
          JOINT leftEye
          {
            OFFSET 4.14528 8.04674 8.04672
            CHANNELS 3 Zrotation Xrotation Yrotation
            End Site
            {
              OFFSET 1 0 0
            }
          }
          JOINT rightEye
          {
            OFFSET -3.6576 8.04674 8.04672
            CHANNELS 3 Zrotation Xrotation Yrotation
            End Site
            {
              OFFSET 1 0 0
            }
          }
        }
      }
      JOINT rCollar
      {
        OFFSET -2.68224 19.2634 -4.8768
        CHANNELS 3 Zrotation Xrotation Yrotation
        JOINT rShldr
        {
          OFFSET -8.77824 -1.95073 1.46304
          CHANNELS 3 Zrotation Xrotation Yrotation
          JOINT rForeArm
          {
            OFFSET -28.1742 -1.7115 0.48768
            CHANNELS 3 Zrotation Xrotation Yrotation
            JOINT rHand
            {
              OFFSET -22.5879 0.773209 7.07136
              CHANNELS 3 Zrotation Xrotation Yrotation
              JOINT rThumb1
              {
                OFFSET -1.2192 -0.487915 3.41376
                CHANNELS 3 Zrotation Xrotation Yrotation
                JOINT rThumb2
                {
                  OFFSET -3.37035 -0.52449 3.41376
                  CHANNELS 3 Zrotation Xrotation Yrotation
                  End Site
                  {
                    OFFSET -1.78271 -1.18214 1.43049
                  }
                }
              }
              JOINT rIndex1
              {
                OFFSET -7.75947 0.938293 5.60832
                CHANNELS 3 Zrotation Xrotation Yrotation
                JOINT rIndex2
                {
                  OFFSET -2.54057 -0.884171 1.56538
                  CHANNELS 3 Zrotation Xrotation Yrotation
                  End Site
                  {
                    OFFSET -1.62519 -0.234802 1.16502
                  }
                }
              }
              JOINT rMid1
              {
                OFFSET -8.24714 1.18213 3.41376
                CHANNELS 3 Zrotation Xrotation Yrotation
                JOINT rMid2
                {
                  OFFSET -3.10165 -0.590103 1.0647
                  CHANNELS 3 Zrotation Xrotation Yrotation
                  End Site
                  {
                    OFFSET -2.48547 -0.328903 0.83742
                  }
                }
              }
              JOINT rRing1
              {
                OFFSET -8.82822 0.546677 1.51678
                CHANNELS 3 Zrotation Xrotation Yrotation
                JOINT rRing2
                {
                  OFFSET -2.60934 -0.819778 -0.0198488
                  CHANNELS 3 Zrotation Xrotation Yrotation
                  End Site
                  {
                    OFFSET -2.33842 -0.294052 0.168128
                  }
                }
              }
              JOINT rPinky1
              {
                OFFSET -8.27202 -0.0477905 -0.4584
                CHANNELS 3 Zrotation Xrotation Yrotation
                JOINT rPinky2
                {
                  OFFSET -1.82734 -0.647385 -0.700984
                  CHANNELS 3 Zrotation Xrotation Yrotation
                  End Site
                  {
                    OFFSET -1.69225 -0.51767 -0.607171
                  }
                }
              }
            }
          }
        }
      }
      JOINT lCollar
      {
        OFFSET 2.68224 19.2634 -4.8768
        CHANNELS 3 Zrotation Xrotation Yrotation
        JOINT lShldr
        {
          OFFSET 8.77824 -1.95073 1.46304
          CHANNELS 3 Zrotation Xrotation Yrotation
          JOINT lForeArm
          {
            OFFSET 28.1742 -1.7115 0.48768
            CHANNELS 3 Zrotation Xrotation Yrotation
            JOINT lHand
            {
              OFFSET 22.5879 0.773209 7.07136
              CHANNELS 3 Zrotation Xrotation Yrotation
              JOINT lThumb1
              {
                OFFSET 1.2192 -0.487915 3.41376
                CHANNELS 3 Zrotation Xrotation Yrotation
                JOINT lThumb2
                {
                  OFFSET 3.37035 -0.52449 3.41376
                  CHANNELS 3 Zrotation Xrotation Yrotation
                  End Site
                  {
                    OFFSET 1.78271 -1.18214 1.43049
                  }
                }
              }
              JOINT lIndex1
              {
                OFFSET 7.75947 0.938293 5.60832
                CHANNELS 3 Zrotation Xrotation Yrotation
                JOINT lIndex2
                {
                  OFFSET 2.54057 -0.884171 1.56538
                  CHANNELS 3 Zrotation Xrotation Yrotation
                  End Site
                  {
                    OFFSET 1.62519 -0.234802 1.16502
                  }
                }
              }
              JOINT lMid1
              {
                OFFSET 8.24714 1.18213 3.41376
                CHANNELS 3 Zrotation Xrotation Yrotation
                JOINT lMid2
                {
                  OFFSET 3.10165 -0.590103 1.0647
                  CHANNELS 3 Zrotation Xrotation Yrotation
                  End Site
                  {
                    OFFSET 2.48547 -0.328903 0.83742
                  }
                }
              }
              JOINT lRing1
              {
                OFFSET 8.82822 0.546677 1.51678
                CHANNELS 3 Zrotation Xrotation Yrotation
                JOINT lRing2
                {
                  OFFSET 2.60934 -0.819778 -0.0198488
                  CHANNELS 3 Zrotation Xrotation Yrotation
                  End Site
                  {
                    OFFSET 2.33842 -0.294052 0.168128
                  }
                }
              }
              JOINT lPinky1
              {
                OFFSET 8.27202 -0.0477905 -0.4584
                CHANNELS 3 Zrotation Xrotation Yrotation
                JOINT lPinky2
                {
                  OFFSET 1.82734 -0.647385 -0.700984
                  CHANNELS 3 Zrotation Xrotation Yrotation
                  End Site
                  {
                    OFFSET 1.69225 -0.51767 -0.607171
                  }
                }
              }
            }
          }
        }
      }
    }
  }
  JOINT rButtock
  {
    OFFSET -8.77824 4.35084 1.2192
    CHANNELS 3 Zrotation Xrotation Yrotation
    JOINT rThigh
    {
      OFFSET 0 -1.70687 -2.19456
      CHANNELS 3 Zrotation Xrotation Yrotation
      JOINT rShin
      {
        OFFSET 0 -36.8199 0.73152
        CHANNELS 3 Zrotation Xrotation Yrotation
        JOINT rFoot
        {
          OFFSET 0.73152 -45.1104 -5.12064
          CHANNELS 3 Zrotation Xrotation Yrotation
          End Site
          {
            OFFSET -1.1221 -3.69964 12.103
          }
        }
      }
    }
  }
  JOINT lButtock
  {
    OFFSET 8.77824 4.35084 1.2192
    CHANNELS 3 Zrotation Xrotation Yrotation
    JOINT lThigh
    {
      OFFSET 0 -1.70687 -2.19456
      CHANNELS 3 Zrotation Xrotation Yrotation
      JOINT lShin
      {
        OFFSET 0 -36.8199 0.73152
        CHANNELS 3 Zrotation Xrotation Yrotation
        JOINT lFoot
        {
          OFFSET -0.73152 -45.1104 -5.12064
          CHANNELS 3 Zrotation Xrotation Yrotation
          End Site
          {
            OFFSET 1.1221 -3.69964 12.103
          }
        }
      }
    }
  }
}
MOTION
Frames:	7
Frame Time:	0.00833333
280.029 82.2227 25.2545 542.04 0.5277 536.582 3.84333 13.6654 -0.186047 2.2562 -1.38202 0.63141 5.30706 -7.23095 2.9667 -2.46536 9.20329 2.40637 -0.0 0.0 0.0 -0.0 0.0 0.0 5.20226e-15 -1.61e-14 -2.35125e-15 77.681 26.8485 -0.042762 -14.1482 -7.07485 25.8524 -0.110688 9.45953 1.34173 4.09698e-11 -2.53625e-10 8.94052e-11 7.28479e-11 -4.40447e-10 1.52605e-10 4.09786e-11 -2.53632e-10 8.93903e-11 7.73091 5.47488 0.417314 4.09692e-11 -2.53634e-10 8.94022e-11 2.90554 0.965183 0.102902 4.09788e-11 -2.53633e-10 8.94013e-11 10.2786 0.731801 0.0259123 4.09646e-11 -2.5363e-10 8.9404e-11 2.22167 -0.733487 -0.20892 5.10695e-15 -1.61037e-14 -2.64943e-15 -81.4305 17.5862 5.46178 7.58413 -2.79164 -13.3509 2.32239 39.0091 -6.53622 6.20287e-10 -7.69199e-12 -5.25718e-10 1.0483e-09 -1.84993e-11 -9.32602e-10 6.2028e-10 -7.69444e-12 -5.25712e-10 -7.73091 5.47488 -0.417314 6.20289e-10 -7.69321e-12 -5.25713e-10 -2.90554 0.965183 -0.102902 6.20281e-10 -7.69423e-12 -5.25714e-10 -10.2786 0.731801 -0.0259123 6.20296e-10 -7.69108e-12 -5.25721e-10 -2.22167 -0.733487 0.20892 -2.03217e-16 0.0 -3.88251e-19 4.56424 -16.1659 0.0272152 -0.103694 26.6482 -0.366742 -1.3161 -12.2285 -3.94 2.03217e-16 0.0 3.88251e-19 4.42101 4.4135 -0.398688 0.683529 50.4168 -0.757228 0.993141 12.6472 -5.67516
280.281 82.3562 24.4631 542.416 0.4896 536.551 4.73644 13.7128 -0.0601608 2.17514 -1.3891 0.712863 5.16388 -7.20318 2.79654 -2.37014 9.07133 2.24162 -0.0 0.0 0.0 -0.0 0.0 0.0 -2.41576e-14 -5.81659e-14 -7.08753e-15 76.9806 27.4385 0.765285 -14.383 -7.26779 26.3279 -0.0922519 8.64331 1.22407 -2.64372e-10 -3.52636e-10 4.49243e-10 -4.51991e-10 -6.14769e-10 7.77764e-10 -2.64363e-10 -3.52641e-10 4.49227e-10 7.73091 5.47488 0.417314 -2.64373e-10 -3.52644e-10 4.49238e-10 2.90554 0.965183 0.102902 -2.64362e-10 -3.52643e-10 4.49236e-10 10.2786 0.731801 0.0259123 -2.64377e-10 -3.52641e-10 4.4924e-10 2.22167 -0.733487 -0.20892 -2.42453e-14 -5.81733e-14 -7.39036e-15 -81.2884 16.9652 6.18528 7.53387 -2.77006 -13.2542 2.67102 41.3032 -7.0881 1.46223e-09 9.48006e-11 -7.17607e-10 2.49418e-09 1.53252e-10 -1.28987e-09 1.46223e-09 9.47966e-11 -7.17603e-10 -7.73091 5.47488 -0.417314 1.46223e-09 9.47985e-11 -7.17603e-10 -2.90554 0.965183 -0.102902 1.46223e-09 9.47972e-11 -7.17606e-10 -10.2786 0.731801 -0.0259123 1.46225e-09 9.48013e-11 -7.17612e-10 -2.22167 -0.733487 0.20892 -2.03217e-16 0.0 -3.88251e-19 5.28932 -15.2647 -0.300739 -0.0865029 26.2163 -0.368064 -1.26786 -12.6916 -3.64018 2.03217e-16 0.0 3.88251e-19 5.47133 2.77273 0.0322347 0.749327 52.1158 -0.818844 0.795 11.6084 -4.93436
280.482 82.4989 23.6473 542.676 0.5156 536.489 5.41616 13.7647 0.0879136 2.11978 -1.39883 0.791503 5.08 -7.22088 2.66173 -2.33162 9.0467 2.07387 -0.0 0.0 0.0 -0.0 0.0 0.0 -4.99969e-14 -7.79191e-14 -1.09829e-14 76.2607 28.0479 1.59013 -14.6153 -7.46183 26.8005 -0.0762566 7.85392 1.11083 -3.97584e-10 -4.56238e-10 6.84621e-10 -6.80692e-10 -7.95406e-10 1.1863e-09 -3.97576e-10 -4.56242e-10 6.84605e-10 7.73091 5.47488 0.417314 -3.97585e-10 -4.56245e-10 6.84614e-10 2.90554 0.965183 0.102902 -3.97574e-10 -4.56244e-10 6.84613e-10 10.2786 0.731801 0.0259123 -3.97589e-10 -4.56243e-10 6.84618e-10 2.22167 -0.733487 -0.20892 -5.00944e-14 -7.79286e-14 -1.1281e-14 -81.1317 16.5091 6.79088 7.48964 -2.74994 -13.1708 2.99276 43.1254 -7.56395 1.91063e-09 1.56884e-10 -7.39991e-10 3.26711e-09 2.57832e-10 -1.34243e-09 1.91063e-09 1.5688e-10 -7.39988e-10 -7.73091 5.47488 -0.417314 1.91064e-09 1.56882e-10 -7.39988e-10 -2.90554 0.965183 -0.102902 1.91063e-09 1.5688e-10 -7.39991e-10 -10.2786 0.731801 -0.0259123 1.91065e-09 1.56885e-10 -7.39997e-10 -2.22167 -0.733487 0.20892 -2.03217e-16 0.0 -3.88251e-19 5.8571 -14.3579 -0.58404 -0.0716762 25.7902 -0.36248 -1.22185 -13.1416 -3.36037 2.03217e-16 0.0 3.88251e-19 6.34167 1.14305 0.500541 0.814003 53.6521 -0.88128 0.63642 10.6352 -4.22034
280.704 82.6505 22.8301 542.965 0.6158 536.438 5.79919 13.8189 0.25812 2.10552 -1.4082 0.864208 5.10355 -7.34317 2.5767 -2.39257 9.21473 1.88727 -0.0 0.0 0.0 -0.0 0.0 0.0 -7.82901e-14 -6.18801e-14 -1.56527e-14 75.5181 28.7026 2.42904 -14.8515 -7.66291 27.2824 -0.0614362 7.06531 0.998095 -2.39564e-10 -6.20351e-10 7.64529e-10 -4.08093e-10 -1.07808e-09 1.32375e-09 -2.39558e-10 -6.20352e-10 7.64514e-10 7.73091 5.47488 0.417314 -2.39566e-10 -6.20356e-10 7.64522e-10 2.90554 0.965183 0.102902 -2.39556e-10 -6.20355e-10 7.64522e-10 10.2786 0.731801 0.0259123 -2.3957e-10 -6.20355e-10 7.64529e-10 2.22167 -0.733487 -0.20892 -7.8426e-14 -6.18892e-14 -1.59319e-14 -80.9702 16.2878 7.23188 7.44952 -2.72951 -13.0984 3.23831 44.3672 -7.90949 1.77358e-09 1.61569e-10 -4.6108e-10 3.0406e-09 2.67386e-10 -8.57165e-10 1.77358e-09 1.61566e-10 -4.61077e-10 -7.73091 5.47488 -0.417314 1.77358e-09 1.61567e-10 -4.61078e-10 -2.90554 0.965183 -0.102902 1.77358e-09 1.61566e-10 -4.61081e-10 -10.2786 0.731801 -0.0259123 1.77359e-09 1.6157e-10 -4.61088e-10 -2.22167 -0.733487 0.20892 -2.03217e-16 0.0 -3.88251e-19 6.19464 -13.4465 -0.8147 -0.0589638 25.376 -0.350125 -1.18248 -13.5834 -3.11249 2.03217e-16 0.0 3.88251e-19 6.96917 -0.497005 1.03347 0.878135 55.0482 -0.945107 0.515165 9.7748 -3.49455
280.903 82.8066 22.0158 543.083 0.6664 536.352 5.95804 13.8778 0.450058 2.1363 -1.4226 0.93442 5.1876 -7.52446 2.50699 -2.52344 9.4938 1.70261 -0.0 0.0 0.0 -0.0 0.0 0.0 -1.097e-13 -2.65349e-14 -2.08351e-14 74.7338 29.3894 3.28315 -15.0898 -7.86934 27.7715 -0.0479284 6.27674 0.885683 7.92148e-11 -8.30398e-10 7.71136e-10 1.41233e-10 -1.4387e-09 1.33333e-09 7.92196e-11 -8.30396e-10 7.71123e-10 7.73091 5.47488 0.417314 7.92133e-11 -8.304e-10 7.71129e-10 2.90554 0.965183 0.102902 7.92223e-11 -8.30399e-10 7.71132e-10 10.2786 0.731801 0.0259123 7.92096e-11 -8.30399e-10 7.71142e-10 2.22167 -0.733487 -0.20892 -1.09893e-13 -2.65422e-14 -2.10867e-14 -80.8273 16.3507 7.57185 7.4434 -2.72647 -13.0872 3.38211 45.0984 -8.11452 1.2974e-09 1.33894e-10 -6.89726e-14 2.23597e-09 2.2344e-10 -4.69467e-11 1.29739e-09 1.33893e-10 -6.51701e-14 -7.73091 5.47488 -0.417314 1.2974e-09 1.33894e-10 -6.80289e-14 -2.90554 0.965183 -0.102902 1.29739e-09 1.33893e-10 -7.01383e-14 -10.2786 0.731801 -0.0259123 1.2974e-09 1.33896e-10 -7.92977e-14 -2.22167 -0.733487 0.20892 -2.03217e-16 0.0 -3.88251e-19 6.35444 -12.5273 -1.01222 -0.0471733 24.9622 -0.33193 -1.14593 -14.0202 -2.87985 2.03217e-16 0.0 3.88251e-19 7.42625 -2.15223 1.62489 0.941293 56.3081 -1.00915 0.419816 8.92093 -2.73237
281.062 82.964 21.2033 543.05 0.6917 536.265 6.02532 13.9445 0.664261 2.17453 -1.44477 1.00658 5.25831 -7.66604 2.44585 -2.64677 9.75323 1.53948 -0.0 0.0 0.0 -0.0 0.0 0.0 -1.30286e-13 1.0152e-14 -2.30916e-14 73.9225 30.0574 4.16216 -15.3171 -8.06881 28.2419 -0.0372229 5.54744 0.782051 3.88629e-10 -9.71496e-10 7.12589e-10 6.74103e-10 -1.67996e-09 1.23019e-09 3.88632e-10 -9.7149e-10 7.12578e-10 7.73091 5.47488 0.417314 3.88628e-10 -9.71493e-10 7.12582e-10 2.90554 0.965183 0.102902 3.88636e-10 -9.71493e-10 7.12588e-10 10.2786 0.731801 0.0259123 3.88624e-10 -9.71494e-10 7.12601e-10 2.22167 -0.733487 -0.20892 -1.30538e-13 1.01467e-14 -2.33141e-14 -80.6912 16.504 7.87529 7.45327 -2.73158 -13.105 3.46056 45.5189 -8.23036 7.29136e-10 9.33067e-11 4.35914e-10 1.27182e-09 1.57516e-10 7.23343e-10 7.2913e-10 9.33087e-11 4.35919e-10 -7.73091 5.47488 -0.417314 7.29138e-10 9.33085e-11 4.35914e-10 -2.90554 0.965183 -0.102902 7.2913e-10 9.33083e-11 4.35913e-10 -10.2786 0.731801 -0.0259123 7.29137e-10 9.33094e-11 4.35902e-10 -2.22167 -0.733487 0.20892 -2.03217e-16 0.0 -3.88251e-19 6.45353 -11.6007 -1.18263 -0.0371126 24.5435 -0.307164 -1.10746 -14.439 -2.64841 2.03217e-16 0.0 3.88251e-19 7.81231 -3.76913 2.2228 0.998815 57.3784 -1.06974 0.352553 8.04996 -2.03381
281.229 83.1277 20.3748 542.992 0.7732 536.191 6.13357 14.0219 0.901278 2.18266 -1.47741 1.08514 5.24218 -7.66922 2.38656 -2.68693 9.86236 1.41768 -0.0 0.0 0.0 -0.0 0.0 0.0 -1.2611e-13 3.02162e-14 -1.89839e-14 73.1016 30.6559 5.07405 -15.5209 -8.24955 28.6676 -0.0299831 4.93666 0.695542 5.18554e-10 -9.28757e-10 5.97031e-10 8.97332e-10 -1.60455e-09 1.02947e-09 5.18557e-10 -9.2875e-10 5.97022e-10 7.73091 5.47488 0.417314 5.18553e-10 -9.28752e-10 5.97025e-10 2.90554 0.965183 0.102902 5.1856e-10 -9.28753e-10 5.97033e-10 10.2786 0.731801 0.0259123 5.18549e-10 -9.28754e-10 5.97047e-10 2.22167 -0.733487 -0.20892 -1.26404e-13 3.02118e-14 -1.91827e-14 -80.5456 16.5541 8.20526 7.46108 -2.7356 -13.119 3.52104 45.828 -8.31776 3.15849e-10 5.92537e-11 6.3974e-10 5.66716e-10 1.01142e-10 1.08882e-09 3.15843e-10 5.92577e-11 6.39746e-10 -7.73091 5.47488 -0.417314 3.15851e-10 5.92568e-11 6.3974e-10 -2.90554 0.965183 -0.102902 3.15842e-10 5.92571e-11 6.39739e-10 -10.2786 0.731801 -0.0259123 3.15847e-10 5.92573e-11 6.39727e-10 -2.22167 -0.733487 0.20892 -2.03217e-16 0.0 -3.88251e-19 6.60928 -10.6672 -1.33186 -0.0295536 24.1146 -0.275112 -1.06216 -14.8268 -2.40411 2.03217e-16 0.0 3.88251e-19 8.21861 -5.29454 2.77462 1.04518 58.2056 -1.12242 0.310471 7.13913 -1.4982
